<?xml version="1.0" encoding="UTF-8" standalone="no"?>
<!-- Created with Inkscape (http://www.inkscape.org/) -->

<svg
   width="135.46664mm"
   height="135.46666mm"
   viewBox="0 0 135.46664 135.46666"
   version="1.1"
   id="svg1"
   xml:space="preserve"
   sodipodi:docname="logo-dark.svg"
   inkscape:version="1.3.2 (091e20e, 2023-11-25)"
   xmlns:inkscape="http://www.inkscape.org/namespaces/inkscape"
   xmlns:sodipodi="http://sodipodi.sourceforge.net/DTD/sodipodi-0.dtd"
   xmlns="http://www.w3.org/2000/svg"
   xmlns:svg="http://www.w3.org/2000/svg"><sodipodi:namedview
     id="namedview1"
     pagecolor="#ffffff"
     bordercolor="#000000"
     borderopacity="0.25"
     inkscape:showpageshadow="2"
     inkscape:pageopacity="0.0"
     inkscape:pagecheckerboard="0"
     inkscape:deskcolor="#d1d1d1"
     inkscape:document-units="mm"
     inkscape:zoom="1.1386721"
     inkscape:cx="258.1955"
     inkscape:cy="271.80785"
     inkscape:window-width="2560"
     inkscape:window-height="1080"
     inkscape:window-x="0"
     inkscape:window-y="0"
     inkscape:window-maximized="0"
     inkscape:current-layer="layer1" /><defs
     id="defs1"><clipPath
       clipPathUnits="userSpaceOnUse"
       id="clipPath1"><rect
         style="fill:#ffffff;stroke-width:0.136;stroke-linecap:round;stroke-linejoin:round;paint-order:stroke fill markers"
         id="rect2"
         width="216.32838"
         height="151.73193"
         x="-17.455191"
         y="38.40136" /></clipPath></defs><g
     id="layer1"
     transform="translate(-29.01707,-47.231089)"><g
       id="g4"
       style="fill:#ffffff"><path
         style="fill:#ffffff;stroke-width:1.08706"
         d="m 96.944267,170.86993 c 0.617959,-0.97418 5.252613,-8.63074 7.386263,-12.2023 1.34666,-2.2542 5.42592,-9.08151 9.06503,-15.17182 11.92044,-19.94966 18.13266,-30.39812 23.29951,-39.18785 9.12873,-15.529651 11.26667,-19.163606 13.95997,-23.728444 7.56765,-12.826334 11.05914,-18.729859 11.91117,-20.139786 0.50406,-0.834107 0.91648,-1.562341 0.91648,-1.618298 0,-0.05596 -10.07591,-0.08535 -22.3909,-0.06533 l -22.3909,0.03641 -2.87155,4.81759 c -9.14749,15.346719 -13.74367,23.105454 -13.8472,23.375262 -0.036,0.09389 0.41603,0.364565 1.05828,0.633677 3.28803,1.377704 6.30165,3.735876 10.16781,7.956329 0.70453,0.769092 1.35167,1.397139 1.43809,1.395659 0.17435,-0.0029 0.56872,-0.560161 4.91082,-6.938221 1.65659,-2.43334 4.09214,-5.992605 5.41233,-7.909478 1.3202,-1.916874 2.89903,-4.214527 3.50851,-5.105897 1.13278,-1.656707 1.47879,-1.988439 0.91157,-0.873963 -0.61093,1.200357 -4.52514,8.012366 -7.71353,13.424096 -2.86554,4.863752 -4.93116,8.429013 -4.93116,8.511205 0,0.0462 0.43683,0.544529 0.97071,1.107506 1.17223,1.236093 1.9606,2.399433 2.50643,3.698533 1.2569,2.99152 1.06617,6.5938 -0.49365,9.32352 -0.42853,0.74994 -2.32234,2.88528 -2.55891,2.88528 -0.0627,0 -0.15661,-0.1935 -0.20855,-0.43 -0.15916,-0.72463 -1.43887,-2.52661 -2.25479,-3.175 -1.28393,-1.0203 -2.85894,-1.57211 -4.48724,-1.57211 -0.7293,0 -0.7768,0.0243 -1.19514,0.61118 -0.46981,0.65909 -5.43113,8.50077 -8.48442,13.41017 -3.520646,5.66083 -6.606984,10.6393 -7.511085,12.11588 -0.49641,0.81072 -0.95115,1.47404 -1.01053,1.47404 -0.20903,0 -5.27855,-5.27051 -6.77792,-7.04663 -3.19447,-3.78412 -6.67604,-8.46293 -9.95195,-13.37421 -2.70908,-4.06149 -3.13065,-4.91146 -3.22743,-6.50722 -0.0869,-1.43152 0.2221,-3.37116 0.82221,-5.16236 0.70244,-2.09669 2.36523,-5.20787 3.55171,-6.64548 l 0.3391,-0.410886 -0.33749,-0.595784 c -0.18563,-0.327672 -1.18075,-2.051836 -2.2114,-3.831469 -1.63007,-2.814648 -5.53146,-9.71313 -7.88902,-13.949444 -1.2348,-2.218817 -2.23279,-4.217863 -2.18189,-4.370526 0.0511,-0.153412 0.76582,0.89618 8.18556,12.021236 2.67453,4.010152 4.92171,7.327605 4.99372,7.372116 0.0721,0.04452 0.79905,-0.606692 1.61561,-1.447118 3.38073,-3.479518 7.49233,-5.843179 11.95533,-6.872836 0.38043,-0.08777 0.69431,-0.211949 0.6975,-0.275961 0.005,-0.104086 -1.4265,-2.542071 -8.2079,-13.976867 -1.07887,-1.819179 -3.35113,-5.651114 -5.04947,-8.515411 l -3.0879,-5.20781 -22.61898,-0.0052 -22.61898,-0.0052 0.17276,0.323569 c 0.095,0.177964 0.7654,1.326636 1.48976,2.552605 0.72437,1.225968 2.05036,3.490956 2.94667,5.033304 0.89631,1.542348 2.89327,4.939829 4.43768,7.549956 1.54441,2.610129 3.45253,5.845824 4.24028,7.190435 0.78775,1.344611 3.04966,5.195089 5.02645,8.556618 1.9768,3.361527 5.01872,8.538643 6.75981,11.504703 1.7411,2.96606 3.56714,6.07231 4.05787,6.9028 3.09356,5.23547 4.4255,7.4962 6.18506,10.49804 7.17183,12.23531 29.602427,49.6956 31.072955,51.8935 l 0.322422,0.48189 z m -4.965542,-38.70357 c 0.41255,-0.41773 0.75008,-0.80487 0.75008,-0.86031 0,-0.0554 -0.26963,-0.53877 -0.59918,-1.07405 -1.61911,-2.6299 -3.12519,-6.47279 -3.73487,-9.52986 -0.43394,-2.17592 -0.48003,-6.34508 -0.0896,-8.09762 0.24496,-1.09927 1.01273,-3.21217 1.25746,-3.46048 0.0688,-0.0698 0.0882,0.72597 0.0437,1.79762 -0.23369,5.62984 1.41299,11.85068 4.312661,16.29235 l 0.64972,0.99524 0.689677,-1.06715 c 0.379318,-0.58692 1.054576,-1.66159 1.500585,-2.38813 l 0.810902,-1.32101 -0.429931,-1.26755 c -0.879126,-2.59188 -0.642658,-5.78211 0.617949,-8.33684 0.725828,-1.47095 1.242224,-2.21445 2.261202,-3.25564 1.38359,-1.41376 2.8228,-2.25207 5.03456,-2.93251 1.15917,-0.35662 1.46962,-0.3897 3.70977,-0.39529 2.12957,-0.005 2.59307,0.0364 3.59522,0.32349 1.89479,0.5428 3.16301,1.253 4.43245,2.48217 1.25853,1.21862 1.15204,1.23047 1.54918,-0.17237 0.2712,-0.95797 0.23244,-3.61682 -0.0688,-4.7161 -0.75539,-2.757 -2.94651,-5.306469 -6.20048,-7.214544 -1.10649,-0.648821 -1.52719,-0.984997 -1.82456,-1.457949 -0.60775,-0.966625 -2.35448,-2.78269 -3.55258,-3.693601 -2.30694,-1.753953 -4.69157,-2.863294 -7.49373,-3.486125 -2.087738,-0.464037 -5.685644,-0.463574 -7.871185,0.001 -2.61203,0.555244 -4.89926,1.519536 -7.22987,3.048091 -1.4642,0.960311 -3.05432,2.162226 -2.97092,2.245622 0.0281,0.02806 0.30379,-0.038 0.61273,-0.146805 0.89181,-0.314069 4.97182,-0.931734 4.76083,-0.72073 -0.0273,0.02726 -0.56258,0.357954 -1.18959,0.734866 -1.87732,1.128517 -3.34426,2.29877 -5.17482,4.128235 -2.69411,2.6925 -4.46336,5.58814 -5.59184,9.15188 -0.28153,0.88907 -0.51186,1.67475 -0.51186,1.74596 0,0.0712 0.38195,-0.441 0.84877,-1.13826 1.56581,-2.33869 3.76927,-4.69543 5.73929,-6.13849 0.41783,-0.30608 0.78984,-0.52635 0.82669,-0.4895 0.0369,0.0369 -0.13227,0.31776 -0.37582,0.62425 -1.80025,2.26531 -3.58364,6.31778 -4.50023,10.22602 l -0.3432,1.46337 1.28312,1.77232 c 0.70571,0.97478 1.61924,2.31887 2.03009,2.98688 l 0.74697,1.21455 0.0918,-2.22864 c 0.23802,-5.7841 2.01191,-10.53134 5.18244,-13.86907 1.07767,-1.13451 2.31095,-2.09508 3.38459,-2.63616 0.84218,-0.42445 0.89436,-0.38565 0.31491,0.23414 -3.36707,3.60151 -5.57778,8.02914 -6.24183,12.50127 -0.37553,2.52908 -0.42013,4.4868 -0.15503,6.80504 0.17934,1.56829 0.32539,2.26347 0.58911,2.80427 0.42877,0.87927 2.27568,3.38377 3.92379,5.32092 1.23186,1.44789 3.62146,3.95474 3.76978,3.95474 0.0439,0 0.41736,-0.34178 0.82989,-0.75952 z m 8.515755,-30.83501 c -0.884204,-0.42003 -1.337714,-0.77549 -2.51665,-1.972553 -0.790954,-0.803107 -1.593431,-1.742956 -1.783286,-2.088553 l -0.345195,-0.62836 1.423763,0.08263 c 1.171327,0.06797 4.156968,0.591585 4.352288,0.763275 0.0288,0.02533 -0.0845,0.267394 -0.25167,0.537941 -0.82524,1.335277 0.20452,2.77658 1.77348,2.48224 0.56615,-0.10621 1.20302,-0.77432 1.32646,-1.39154 l 0.0811,-0.40568 0.59434,0.302333 c 0.82171,0.417974 2.26919,1.549267 2.17575,1.700467 -0.1292,0.20903 -1.657,0.73475 -2.94758,1.01426 -1.60854,0.34838 -2.50827,0.25651 -3.88284,-0.39646 z"
         id="path4" /></g></g></svg>
